<?xml version="1.0" encoding="UTF-8"?>
<!DOCTYPE svg PUBLIC "-//W3C//DTD SVG 1.1//EN" "http://www.w3.org/Graphics/SVG/1.1/DTD/svg11.dtd">
<svg xmlns="http://www.w3.org/2000/svg" version="1.1" width="194px" height="78px" style="shape-rendering:geometricPrecision; text-rendering:geometricPrecision; image-rendering:optimizeQuality; fill-rule:evenodd; clip-rule:evenodd" xmlns:xlink="http://www.w3.org/1999/xlink">
<g><path style="opacity:1" fill="transparent" d="M -0.5,-0.5 C 64.1667,-0.5 128.833,-0.5 193.5,-0.5C 193.5,25.5 193.5,51.5 193.5,77.5C 128.833,77.5 64.1667,77.5 -0.5,77.5C -0.5,51.5 -0.5,25.5 -0.5,-0.5 Z"/></g>
<g><path style="opacity:1" fill="#0cd117" d="M 7.5,20.5 C 11.3785,22.1188 11.3785,23.7855 7.5,25.5C 5.06985,23.9626 5.06985,22.296 7.5,20.5 Z"/></g>
<g><path style="opacity:1" fill="#07c36d" d="M 15.5,24.5 C 18.8606,25.2032 19.1939,26.5365 16.5,28.5C 14.3576,27.5629 14.0243,26.2296 15.5,24.5 Z"/></g>
<g><path style="opacity:1" fill="#07dd1f" d="M 6.5,29.5 C 9.86057,30.2032 10.1939,31.5365 7.5,33.5C 5.35765,32.5629 5.02431,31.2296 6.5,29.5 Z"/></g>
<g><path style="opacity:1" fill="#0ab5d5" d="M 22.5,29.5 C 23.9587,29.4326 25.2921,29.7659 26.5,30.5C 26.5,31.1667 26.5,31.8333 26.5,32.5C 25.1667,32.1667 23.8333,31.8333 22.5,31.5C 22.5,30.8333 22.5,30.1667 22.5,29.5 Z"/></g>
<g><path style="opacity:1" fill="#3073d9" d="M 26.5,30.5 C 28.153,30.6596 29.4863,31.3263 30.5,32.5C 29.6618,32.8417 29.3284,33.5084 29.5,34.5C 28.5,33.8333 27.5,33.1667 26.5,32.5C 26.5,31.8333 26.5,31.1667 26.5,30.5 Z"/></g>
<g><path style="opacity:1" fill="#e98a13" d="M 42.5,29.5 C 44.8568,29.3367 47.1902,29.5034 49.5,30C 51.8808,30.2233 53.5475,31.39 54.5,33.5C 53.8333,33.5 53.5,33.8333 53.5,34.5C 50.2376,32.1203 46.5709,31.1203 42.5,31.5C 42.5,30.8333 42.5,30.1667 42.5,29.5 Z"/></g>
<g><path style="opacity:1" fill="#a423a5" d="M 42.5,29.5 C 42.5,30.1667 42.5,30.8333 42.5,31.5C 40.513,32.1642 38.8463,33.3308 37.5,35C 36.5,35.6667 35.5,35.6667 34.5,35C 36.5166,32.1388 39.1833,30.3054 42.5,29.5 Z"/></g>
<g><path style="opacity:1" fill="#7725dd" d="M 30.5,32.5 C 33.1119,34.0522 34.4452,36.3855 34.5,39.5C 34.8016,42.0593 34.4682,44.3926 33.5,46.5C 33.2173,42.0463 31.8839,38.0463 29.5,34.5C 29.3284,33.5084 29.6618,32.8417 30.5,32.5 Z"/></g>
<g><path style="opacity:1" fill="#06e51f" d="M 71.5,44.5 C 71.7373,45.791 71.404,46.791 70.5,47.5C 67.2392,44.6796 66.7392,41.3463 69,37.5C 72.6168,33.8999 76.1168,33.7333 79.5,37C 79.1667,37.5 78.8333,38 78.5,38.5C 73.2005,36.7905 70.8672,38.7905 71.5,44.5 Z"/></g>
<g><path style="opacity:1" fill="#e77108" d="M 44.5,34.5 C 47.0838,35.0483 48.0838,36.715 47.5,39.5C 46.1667,39.5 44.8333,39.5 43.5,39.5C 43.366,37.7085 43.6993,36.0418 44.5,34.5 Z"/></g>
<g><path style="opacity:1" fill="#04e360" d="M 93.5,36.5 C 93.573,38.0269 92.9063,39.0269 91.5,39.5C 90.713,37.8958 89.3797,37.2291 87.5,37.5C 87.5,38.8333 87.5,40.1667 87.5,41.5C 86.7095,42.4013 85.7095,43.0679 84.5,43.5C 82.8011,34.5554 85.8011,32.2221 93.5,36.5 Z"/></g>
<g><path style="opacity:1" fill="#2b85e9" d="M 120.5,43.5 C 119.528,41.5069 118.195,41.1736 116.5,42.5C 117.119,36.3807 120.453,33.8807 126.5,35C 127.357,35.6891 128.023,36.5224 128.5,37.5C 126.657,37.7552 124.657,37.9219 122.5,38C 120.845,39.4443 120.178,41.2776 120.5,43.5 Z"/></g>
<g><path style="opacity:1" fill="#0bbbed" d="M 20.5,35.5 C 23.8281,34.1495 25.1614,35.4828 24.5,39.5C 24.1667,42.1667 23.8333,44.8333 23.5,47.5C 20.6702,49.0348 19.3369,48.0348 19.5,44.5C 20.0845,41.9966 20.7511,39.4966 21.5,37C 21.4301,36.2352 21.0967,35.7352 20.5,35.5 Z"/></g>
<g><path style="opacity:1" fill="#213026" d="M 91.5,39.5 C 90.713,41.1042 89.3797,41.7709 87.5,41.5C 87.5,40.1667 87.5,38.8333 87.5,37.5C 89.3797,37.2291 90.713,37.8958 91.5,39.5 Z"/></g>
<g><path style="opacity:1" fill="#10d469" d="M 22.5,29.5 C 22.5,30.1667 22.5,30.8333 22.5,31.5C 15.3626,32.3045 11.6959,36.3045 11.5,43.5C 11.7373,44.791 11.404,45.791 10.5,46.5C 7.83491,36.1703 11.8349,30.5036 22.5,29.5 Z"/></g>
<g><path style="opacity:1" fill="#d96024" d="M 159.5,38.5 C 157.62,38.2291 156.287,38.8958 155.5,40.5C 155.5,43.5 155.5,46.5 155.5,49.5C 154.178,49.67 153.011,49.3366 152,48.5C 151.503,45.854 151.336,43.1873 151.5,40.5C 151.833,39.8333 152.167,39.1667 152.5,38.5C 154.979,37.3773 157.312,37.3773 159.5,38.5 Z"/></g>
<g><path style="opacity:1" fill="#0bc1b6" d="M 20.5,35.5 C 21.0967,35.7352 21.4301,36.2352 21.5,37C 20.7511,39.4966 20.0845,41.9966 19.5,44.5C 16.0022,44.5216 14.6689,43.0216 15.5,40C 16.7932,39.51 18.1266,39.3433 19.5,39.5C 19.2322,37.901 19.5655,36.5676 20.5,35.5 Z"/></g>
<g><path style="opacity:1" fill="#e6ca05" d="M 54.5,33.5 C 60.1531,40.1355 59.4864,46.3022 52.5,52C 50.3225,53.2022 47.9892,53.7022 45.5,53.5C 45.5,52.8333 45.5,52.1667 45.5,51.5C 55.3835,49.396 58.0502,43.7293 53.5,34.5C 53.5,33.8333 53.8333,33.5 54.5,33.5 Z"/></g>
<g><path style="opacity:1" fill="#0bbca1" d="M 102.5,38.5 C 101.872,40.6616 100.539,42.3282 98.5,43.5C 97.1546,35.4886 100.488,32.4886 108.5,34.5C 108.5,35.8333 108.5,37.1667 108.5,38.5C 106.5,38.5 104.5,38.5 102.5,38.5 Z"/></g>
<g><path style="opacity:1" fill="#f3a902" d="M 48.5,39.5 C 49.8333,39.5 51.1667,39.5 52.5,39.5C 52.5,40.8333 52.5,42.1667 52.5,43.5C 48.56,44.234 47.2266,42.9007 48.5,39.5 Z"/></g>
<g><path style="opacity:1" fill="#c84069" d="M 152.5,38.5 C 152.167,39.1667 151.833,39.8333 151.5,40.5C 149.821,40.2852 148.821,40.9519 148.5,42.5C 147.391,42.5569 146.391,42.8902 145.5,43.5C 145.476,38.1652 147.81,36.4986 152.5,38.5 Z"/></g>
<g><path style="opacity:1" fill="#d45437" d="M 38.5,39.5 C 39.8734,39.3433 41.2068,39.51 42.5,40C 43.474,42.702 42.474,44.0354 39.5,44C 38.6198,42.6439 38.2865,41.1439 38.5,39.5 Z"/></g>
<g><path style="opacity:1" fill="#a21eb6" d="M 141.5,40.5 C 140.608,43.2921 138.608,44.6254 135.5,44.5C 135.771,46.3797 135.104,47.713 133.5,48.5C 131.727,47.6857 131.227,46.3524 132,44.5C 133.916,43.0722 136.083,42.0722 138.5,41.5C 136.5,40.8333 134.5,40.1667 132.5,39.5C 132.667,39.1667 132.833,38.8333 133,38.5C 135.064,37.4086 137.231,37.2419 139.5,38C 140.756,38.4169 141.423,39.2502 141.5,40.5 Z"/></g>
<g><path style="opacity:1" fill="#3576e8" d="M 24.5,39.5 C 29.2442,39.0384 30.2442,40.5384 27.5,44C 26.552,44.4828 25.552,44.6495 24.5,44.5C 24.7373,45.791 24.404,46.791 23.5,47.5C 23.8333,44.8333 24.1667,42.1667 24.5,39.5 Z"/></g>
<g><path style="opacity:1" fill="#0bafc6" d="M 102.5,38.5 C 102.5,39.5 102.5,40.5 102.5,41.5C 104.167,41.5 105.833,41.5 107.5,41.5C 107.5,42.5 107.5,43.5 107.5,44.5C 105.833,44.5 104.167,44.5 102.5,44.5C 102.5,46.1667 102.5,47.8333 102.5,49.5C 98.9319,49.2407 97.5985,47.2407 98.5,43.5C 100.539,42.3282 101.872,40.6616 102.5,38.5 Z"/></g>
<g><path style="opacity:1" fill="#e5d006" d="M 180.5,37.5 C 182.467,37.2606 184.301,37.5939 186,38.5C 186.749,39.635 186.583,40.635 185.5,41.5C 184.109,40.3554 182.776,40.3554 181.5,41.5C 184.411,41.8757 186.411,43.3757 187.5,46C 187.241,47.2613 186.574,48.2613 185.5,49C 183.19,49.4966 180.857,49.6633 178.5,49.5C 178.5,48.5 178.5,47.5 178.5,46.5C 180.199,46.6602 181.866,46.4935 183.5,46C 177.325,44.4528 176.325,41.6195 180.5,37.5 Z"/></g>
<g><path style="opacity:1" fill="#e78405" d="M 44.5,43.5 C 47.0838,44.0483 48.0838,45.715 47.5,48.5C 42.5162,48.8558 41.5162,47.1891 44.5,43.5 Z"/></g>
<g><path style="opacity:1" fill="#06d390" d="M 93.5,36.5 C 96.0531,38.7045 96.0531,41.0379 93.5,43.5C 92.7777,44.5511 91.7777,45.2178 90.5,45.5C 89.8501,45.1961 89.1835,44.8627 88.5,44.5C 87.5481,46.0453 87.2148,47.712 87.5,49.5C 86.5,49.5 85.5,49.5 84.5,49.5C 84.5,47.5 84.5,45.5 84.5,43.5C 85.7095,43.0679 86.7095,42.4013 87.5,41.5C 89.3797,41.7709 90.713,41.1042 91.5,39.5C 92.9063,39.0269 93.573,38.0269 93.5,36.5 Z"/></g>
<g><path style="opacity:1" fill="#ab3a63" d="M 141.5,40.5 C 143.833,48.1667 141.167,50.8333 133.5,48.5C 135.104,47.713 135.771,46.3797 135.5,44.5C 138.608,44.6254 140.608,43.2921 141.5,40.5 Z"/></g>
<g><path style="opacity:1" fill="#fa8c03" d="M 159.5,38.5 C 160.117,38.6107 160.617,38.944 161,39.5C 161.498,42.8168 161.665,46.1501 161.5,49.5C 160.5,49.5 159.5,49.5 158.5,49.5C 158.664,46.8127 158.497,44.146 158,41.5C 157.329,40.7476 156.496,40.4142 155.5,40.5C 156.287,38.8958 157.62,38.2291 159.5,38.5 Z"/></g>
<g><path style="opacity:1" fill="#f0a902" d="M 167.5,37.5 C 172.804,36.976 175.138,39.1427 174.5,44C 166.526,45.1512 166.526,45.9845 174.5,46.5C 174.5,47.5 174.5,48.5 174.5,49.5C 164.417,49.7778 162.084,45.7778 167.5,37.5 Z"/></g>
<g><path style="opacity:1" fill="#342b1d" d="M 168.5,40.5 C 169.675,40.281 170.675,40.6143 171.5,41.5C 169.948,42.7979 168.948,42.4646 168.5,40.5 Z"/></g>
<g><path style="opacity:1" fill="#962a81" d="M 34.5,39.5 C 35.3705,42.003 36.0372,44.6697 36.5,47.5C 36.5,48.1667 36.5,48.8333 36.5,49.5C 35.1667,48.8333 34.1667,47.8333 33.5,46.5C 34.4682,44.3926 34.8016,42.0593 34.5,39.5 Z"/></g>
<g><path style="opacity:1" fill="#07dc62" d="M 70.5,47.5 C 71.404,46.791 71.7373,45.791 71.5,44.5C 73.1417,46.0808 75.1417,46.7475 77.5,46.5C 77.5,45.5 77.5,44.5 77.5,43.5C 76.5,43.5 75.5,43.5 74.5,43.5C 74.5,42.5 74.5,41.5 74.5,40.5C 76.5,40.5 78.5,40.5 80.5,40.5C 82.495,48.6722 79.495,51.5055 71.5,49C 70.944,48.6174 70.6107,48.1174 70.5,47.5 Z"/></g>
<g><path style="opacity:1" fill="#08bfba" d="M 93.5,43.5 C 93.7031,45.0443 94.3698,46.3777 95.5,47.5C 92.9534,50.0362 91.2867,49.3695 90.5,45.5C 91.7777,45.2178 92.7777,44.5511 93.5,43.5 Z"/></g>
<g><path style="opacity:1" fill="#742ee9" d="M 116.5,42.5 C 118.195,41.1736 119.528,41.5069 120.5,43.5C 121.048,46.0838 122.715,47.0838 125.5,46.5C 125.5,45.5 125.5,44.5 125.5,43.5C 123.058,43.6463 122.391,42.813 123.5,41C 125.441,40.2571 127.274,40.4238 129,41.5C 130.2,49.0162 127.033,51.5162 119.5,49C 117.549,47.2658 116.549,45.0991 116.5,42.5 Z"/></g>
<g><path style="opacity:1" fill="#ed6322" d="M 148.5,42.5 C 148.5,44.8333 148.5,47.1667 148.5,49.5C 147.5,49.5 146.5,49.5 145.5,49.5C 145.5,47.5 145.5,45.5 145.5,43.5C 146.391,42.8902 147.391,42.5569 148.5,42.5 Z"/></g>
<g><path style="opacity:1" fill="#19b8ad" d="M 11.5,43.5 C 13.2022,47.5309 16.2022,50.1976 20.5,51.5C 20.5,52.1667 20.5,52.8333 20.5,53.5C 15.7819,53.1412 12.4486,50.8079 10.5,46.5C 11.404,45.791 11.7373,44.791 11.5,43.5 Z"/></g>
<g><path style="opacity:1" fill="#7728ec" d="M 24.5,53.5 C 24.5,52.8333 24.5,52.1667 24.5,51.5C 26.9687,50.4314 29.3021,49.0981 31.5,47.5C 32.5937,48.868 32.2603,50.0347 30.5,51C 28.5932,52.122 26.5932,52.9553 24.5,53.5 Z"/></g>
<g><path style="opacity:1" fill="#3580ff" d="M 20.5,51.5 C 21.8333,51.5 23.1667,51.5 24.5,51.5C 24.5,52.1667 24.5,52.8333 24.5,53.5C 23.1667,53.5 21.8333,53.5 20.5,53.5C 20.5,52.8333 20.5,52.1667 20.5,51.5 Z"/></g>
<g><path style="opacity:1" fill="#ed7c1c" d="M 36.5,47.5 C 38.8707,50.1842 41.8707,51.5175 45.5,51.5C 45.5,52.1667 45.5,52.8333 45.5,53.5C 41.5843,54.0391 38.5843,52.7058 36.5,49.5C 36.5,48.8333 36.5,48.1667 36.5,47.5 Z"/></g>
</svg>
